<svg width="50" height="50" viewBox="0 0 50 50" fill="none" xmlns="http://www.w3.org/2000/svg">
<path d="M29.1668 4.72754V13.3328C29.1668 14.4996 29.1668 15.083 29.3939 15.5286C29.5936 15.9206 29.9123 16.2394 30.3043 16.4391C30.75 16.6662 31.3334 16.6662 32.5002 16.6662H41.1055M25.0002 37.4993V24.9993M18.7502 31.2493H31.2502M29.1668 4.16602H18.3335C14.8332 4.16602 13.083 4.16602 11.7461 4.84722C10.57 5.44643 9.61391 6.40256 9.01471 7.57857C8.3335 8.91552 8.3335 10.6657 8.3335 14.166V35.8327C8.3335 39.333 8.3335 41.0832 9.01471 42.4201C9.61391 43.5961 10.57 44.5523 11.7461 45.1515C13.083 45.8327 14.8332 45.8327 18.3335 45.8327H31.6668C35.1672 45.8327 36.9173 45.8327 38.2543 45.1515C39.4303 44.5523 40.3864 43.5961 40.9856 42.4201C41.6668 41.0832 41.6668 39.333 41.6668 35.8327V16.666L29.1668 4.16602Z" stroke="#C7C7C7" stroke-width="4" stroke-linecap="round" stroke-linejoin="round"/>
</svg>
