<svg width="50" height="50" viewBox="0 0 50 50" fill="none" xmlns="http://www.w3.org/2000/svg">
<path d="M24.9998 41.6673H10.8332C8.49962 41.6673 7.33284 41.6673 6.44154 41.2132C5.65753 40.8137 5.02012 40.1763 4.62064 39.3923C4.1665 38.501 4.1665 37.3342 4.1665 35.0007V15.0007C4.1665 12.6671 4.1665 11.5003 4.62064 10.609C5.02012 9.82502 5.65753 9.1876 6.44154 8.78812C7.33284 8.33398 8.49962 8.33398 10.8332 8.33398H11.6665C16.3336 8.33398 18.6672 8.33398 20.4498 9.24226C22.0178 10.0412 23.2926 11.316 24.0916 12.8841C24.9998 14.6667 24.9998 17.0002 24.9998 21.6673M24.9998 41.6673V21.6673M24.9998 41.6673H39.1665C41.5001 41.6673 42.6668 41.6673 43.5581 41.2132C44.3421 40.8137 44.9796 40.1763 45.379 39.3923C45.8332 38.501 45.8332 37.3342 45.8332 35.0007V15.0007C45.8332 12.6671 45.8332 11.5003 45.379 10.609C44.9796 9.82502 44.3421 9.1876 43.5581 8.78812C42.6668 8.33398 41.5001 8.33398 39.1665 8.33398H38.3332C33.6661 8.33398 31.3325 8.33398 29.5499 9.24226C27.9819 10.0412 26.7071 11.316 25.9081 12.8841C24.9998 14.6667 24.9998 17.0002 24.9998 21.6673" stroke="#C4C4C4" stroke-width="4" stroke-linecap="round" stroke-linejoin="round"/>
</svg>
