<svg width="27" height="27" viewBox="0 0 27 27" fill="none" xmlns="http://www.w3.org/2000/svg">
<path d="M8.4375 13.5L11.8125 16.875L18.5625 10.125M8.775 23.625H18.225C20.1152 23.625 21.0603 23.625 21.7822 23.2571C22.4173 22.9336 22.9336 22.4173 23.2571 21.7822C23.625 21.0603 23.625 20.1152 23.625 18.225V8.775C23.625 6.88482 23.625 5.93973 23.2571 5.21778C22.9336 4.58274 22.4173 4.06643 21.7822 3.74285C21.0603 3.375 20.1152 3.375 18.225 3.375H8.775C6.88482 3.375 5.93973 3.375 5.21778 3.74285C4.58274 4.06643 4.06643 4.58274 3.74285 5.21778C3.375 5.93973 3.375 6.88482 3.375 8.775V18.225C3.375 20.1152 3.375 21.0603 3.74285 21.7822C4.06643 22.4173 4.58274 22.9336 5.21778 23.2571C5.93973 23.625 6.88482 23.625 8.775 23.625Z" stroke="white" stroke-width="2" stroke-linecap="round" stroke-linejoin="round"/>
</svg>
