<svg width="30" height="30" viewBox="0 0 30 30" fill="none" xmlns="http://www.w3.org/2000/svg">
<path fill-rule="evenodd" clip-rule="evenodd" d="M25 8.16666C25 7.73392 24.8596 7.31285 24.6 6.96666L21.85 3.3C21.4723 2.79639 20.8795 2.50001 20.25 2.5L15 2.5L7 2.5C5.89543 2.50001 5 3.39543 5 4.5V25.5C5 26.6046 5.89543 27.5 7 27.5H23C24.1046 27.5 25 26.6046 25 25.5V15V8.16666ZM23 15V8.16666L20.25 4.5L15 4.5L7 4.5V25.5H23V15ZM11.25 17.75C10.6977 17.75 10.25 18.1977 10.25 18.75C10.25 19.3023 10.6977 19.75 11.25 19.75H18.75C19.3023 19.75 19.75 19.3023 19.75 18.75C19.75 18.1977 19.3023 17.75 18.75 17.75H11.25ZM10.25 22.5C10.25 21.9477 10.6977 21.5 11.25 21.5H15C15.5523 21.5 16 21.9477 16 22.5C16 23.0523 15.5523 23.5 15 23.5H11.25C10.6977 23.5 10.25 23.0523 10.25 22.5ZM19.3865 9.20979C19.7377 8.78354 19.6768 8.1533 19.2506 7.80212C18.8243 7.45094 18.1941 7.51179 17.8429 7.93804L13.8835 12.7438L11.8707 10.4193C11.5091 10.0018 10.8776 9.95642 10.4601 10.3179C10.0426 10.6795 9.99719 11.311 10.3587 11.7285L12.3715 14.053C13.1821 14.989 14.6397 14.9712 15.4271 14.0155L19.3865 9.20979Z" fill="#2C2F88"/>
</svg>
