<svg width="76" height="76" viewBox="0 0 76 76" fill="none" xmlns="http://www.w3.org/2000/svg">
<path d="M44.3332 7.1875V20.2675C44.3332 22.041 44.3332 22.9278 44.6783 23.6052C44.9819 24.201 45.4664 24.6855 46.0622 24.9891C46.7396 25.3342 47.6263 25.3342 49.3998 25.3342H62.4799M37.9998 57.0006V38.0006M28.4998 47.5006H47.4998M44.3332 6.33398H27.8665C22.546 6.33398 19.8858 6.33398 17.8536 7.36942C16.0661 8.28022 14.6127 9.73353 13.7019 11.5211C12.6665 13.5532 12.6665 16.2135 12.6665 21.534V54.4673C12.6665 59.7878 12.6665 62.4481 13.7019 64.4802C14.6127 66.2678 16.0661 67.7211 17.8536 68.6319C19.8858 69.6673 22.546 69.6673 27.8665 69.6673H48.1332C53.4537 69.6673 56.1139 69.6673 58.1461 68.6319C59.9336 67.7211 61.3869 66.2678 62.2977 64.4802C63.3332 62.4481 63.3332 59.7878 63.3332 54.4673V25.334L44.3332 6.33398Z" stroke="white" stroke-width="4" stroke-linecap="round" stroke-linejoin="round"/>
</svg>
