<svg width="50" height="50" viewBox="0 0 50 50" fill="none" xmlns="http://www.w3.org/2000/svg">
<path d="M18.7498 43.75V28.3333C18.7498 27.1666 18.7498 26.5832 18.9769 26.1375C19.1767 25.7455 19.4954 25.4268 19.8874 25.2271C20.333 25 20.9164 25 22.0832 25H27.9165C29.0833 25 29.6667 25 30.1123 25.2271C30.5043 25.4268 30.823 25.7455 31.0228 26.1375C31.2498 26.5832 31.2498 27.1666 31.2498 28.3333V43.75M4.1665 19.7917L22.9998 5.66667C23.717 5.12876 24.0757 4.85981 24.4695 4.75614C24.8171 4.66462 25.1825 4.66462 25.5302 4.75614C25.924 4.85981 26.2826 5.12876 26.9998 5.66667L45.8332 19.7917M8.33318 16.6667V37.0833C8.33318 39.4169 8.33318 40.5837 8.78732 41.475C9.18679 42.259 9.82421 42.8964 10.6082 43.2959C11.4995 43.75 12.6663 43.75 14.9998 43.75H34.9998C37.3334 43.75 38.5002 43.75 39.3915 43.2959C40.1755 42.8964 40.8129 42.259 41.2124 41.475C41.6665 40.5837 41.6665 39.4169 41.6665 37.0833V16.6667L28.9998 7.16667C27.5654 6.09086 26.8482 5.55295 26.0605 5.3456C25.3653 5.16258 24.6344 5.16258 23.9391 5.3456C23.1515 5.55295 22.4343 6.09086 20.9998 7.16667L8.33318 16.6667Z" stroke="#2C2F88" stroke-width="4" stroke-linecap="round" stroke-linejoin="round"/>
</svg>
