<svg width="30" height="30" viewBox="0 0 30 30" fill="none" xmlns="http://www.w3.org/2000/svg">
<g clip-path="url(#clip0_651_1434)">
<path d="M30 23.9375V5.3125C30.0007 4.61467 29.8637 3.92356 29.597 3.27872C29.3302 2.63388 28.9389 2.04797 28.4455 1.55453C27.952 1.06109 27.3661 0.669798 26.7213 0.403053C26.0764 0.136308 25.3853 -0.000655355 24.6875 2.35759e-06L30 23.9375ZM30 23.9375C30.0007 24.6353 29.8637 25.3264 29.597 25.9713C29.3302 26.6161 28.9389 27.202 28.4455 27.6955C27.952 28.1889 27.3661 28.5802 26.7213 28.847C26.0764 29.1137 25.3853 29.2507 24.6875 29.25H5.3125M30 23.9375L5.3125 29.25M5.3125 29.25C4.61467 29.2507 3.92356 29.1137 3.27872 28.847M5.3125 29.25L3.27872 28.847M3.27872 28.847C2.63388 28.5802 2.04797 28.1889 1.55453 27.6955M3.27872 28.847L1.55453 27.6955M1.55453 27.6955C1.06109 27.202 0.669798 26.6161 0.403053 25.9713M1.55453 27.6955L0.403053 25.9713M0.403053 25.9713C0.136308 25.3264 -0.000655355 24.6353 2.35759e-06 23.9375L0.403053 25.9713ZM5.31156 1H5.3125L24.6875 1L24.6884 1C25.2548 0.999468 25.8157 1.11063 26.339 1.32711C26.8624 1.5436 27.3379 1.86117 27.7384 2.26164C28.1388 2.66211 28.4564 3.13762 28.6729 3.66097C28.8894 4.18431 29.0005 4.74521 29 5.31156V5.3125V23.9375V23.9384C29.0005 24.5048 28.8894 25.0657 28.6729 25.589C28.4564 26.1124 28.1388 26.5879 27.7384 26.9884C27.3379 27.3888 26.8624 27.7064 26.339 27.9229C25.8157 28.1394 25.2548 28.2505 24.6884 28.25H24.6875H5.3125H5.31156C4.74521 28.2505 4.18431 28.1394 3.66097 27.9229C3.13762 27.7064 2.66211 27.3888 2.26164 26.9884C1.86117 26.5879 1.5436 26.1124 1.32711 25.589C1.11063 25.0657 0.999468 24.5048 1 23.9384V23.9375L1 5.3125L1 5.31156C0.999468 4.74521 1.11063 4.18431 1.32711 3.66097C1.5436 3.13762 1.86117 2.66211 2.26164 2.26164C2.66211 1.86117 3.13762 1.5436 3.66097 1.32711C4.18431 1.11063 4.74521 0.999468 5.31156 1Z" stroke="#F89400" stroke-width="2"/>
<path d="M14.5374 17.5508H9.88742L8.93742 20.4883C8.92681 20.5418 8.89656 20.5895 8.85261 20.6218C8.80867 20.6542 8.75421 20.669 8.69992 20.6633H6.34992C6.21242 20.6633 6.17492 20.5883 6.21242 20.4383L10.2374 8.85078C10.2749 8.72578 10.3124 8.58828 10.3624 8.43828C10.4127 8.17038 10.4378 7.89836 10.4374 7.62578C10.4337 7.59448 10.4419 7.56291 10.4604 7.53741C10.479 7.51191 10.5065 7.49436 10.5374 7.48828H13.7749C13.8749 7.48828 13.9249 7.52578 13.9374 7.58828L18.4999 20.4633C18.5374 20.6008 18.4999 20.6633 18.3749 20.6633H15.7624C15.7182 20.6675 15.674 20.6561 15.6374 20.6309C15.6008 20.6058 15.5743 20.5686 15.5624 20.5258L14.5374 17.5508ZM10.6124 15.0133H13.7874C13.7124 14.7508 13.6124 14.4383 13.4999 14.1133C13.3874 13.7883 13.2749 13.4133 13.1624 13.0383C13.0499 12.6633 12.9249 12.2758 12.7999 11.8883C12.6749 11.5008 12.5624 11.1383 12.4624 10.7758C12.3624 10.4133 12.2749 10.1008 12.1874 9.80078H12.1624C12.0501 10.3456 11.9082 10.8839 11.7374 11.4133C11.5499 12.0133 11.3624 12.6383 11.1624 13.2633C10.9874 13.9008 10.7999 14.4883 10.6124 15.0133Z" fill="#F89400"/>
<path d="M21.225 9.62583C21.0198 9.63032 20.8158 9.59395 20.6248 9.51884C20.4338 9.44373 20.2596 9.33138 20.1125 9.18833C19.8261 8.87519 19.6735 8.46245 19.6875 8.03833C19.6801 7.83169 19.7163 7.6258 19.7939 7.43411C19.8714 7.24242 19.9885 7.06923 20.1375 6.92583C20.4379 6.64185 20.8366 6.48508 21.25 6.48833C21.7375 6.48833 22.1125 6.63833 22.3875 6.92583C22.6644 7.22892 22.8123 7.62797 22.8 8.03833C22.8076 8.24953 22.7728 8.46011 22.6977 8.65763C22.6225 8.85515 22.5085 9.03561 22.3625 9.18833C22.2152 9.33836 22.0374 9.45504 21.8412 9.53052C21.645 9.60599 21.4348 9.63849 21.225 9.62583ZM19.825 20.4758V10.8508C19.825 10.7258 19.875 10.6758 19.9875 10.6758H22.4625C22.575 10.6758 22.625 10.7383 22.625 10.8508V20.4758C22.625 20.6133 22.575 20.6758 22.4625 20.6758H20.0125C19.9862 20.678 19.9598 20.6742 19.9352 20.6647C19.9106 20.6553 19.8884 20.6403 19.8704 20.6211C19.8524 20.6019 19.8389 20.5788 19.8311 20.5537C19.8232 20.5285 19.8211 20.5019 19.825 20.4758Z" fill="#F89400"/>
</g>
<defs>
<clipPath id="clip0_651_1434">
<rect width="30" height="29.25" fill="white"/>
</clipPath>
</defs>
</svg>
