<svg width="50" height="50" viewBox="0 0 50 50" fill="none" xmlns="http://www.w3.org/2000/svg">
<path d="M19.7917 18.6778C19.7917 17.6834 19.7917 17.1863 19.9995 16.9087C20.1805 16.6668 20.4577 16.5155 20.7591 16.494C21.105 16.4693 21.5232 16.7381 22.3596 17.2758L32.1942 23.598C32.92 24.0646 33.2829 24.2979 33.4082 24.5946C33.5177 24.8538 33.5177 25.1462 33.4082 25.4054C33.2829 25.7021 32.92 25.9354 32.1942 26.402L22.3596 32.7242C21.5232 33.2619 21.105 33.5307 20.7591 33.506C20.4577 33.4845 20.1805 33.3332 19.9995 33.0913C19.7917 32.8137 19.7917 32.3166 19.7917 31.3222V18.6778Z" stroke="#C7C7C7" stroke-width="4" stroke-linecap="round" stroke-linejoin="round"/>
<path d="M6.25 16.25C6.25 12.7497 6.25 10.9995 6.93121 9.66256C7.53042 8.48655 8.48655 7.53042 9.66256 6.93121C10.9995 6.25 12.7497 6.25 16.25 6.25H33.75C37.2503 6.25 39.0005 6.25 40.3374 6.93121C41.5135 7.53042 42.4696 8.48655 43.0688 9.66256C43.75 10.9995 43.75 12.7497 43.75 16.25V33.75C43.75 37.2503 43.75 39.0005 43.0688 40.3374C42.4696 41.5135 41.5135 42.4696 40.3374 43.0688C39.0005 43.75 37.2503 43.75 33.75 43.75H16.25C12.7497 43.75 10.9995 43.75 9.66256 43.0688C8.48655 42.4696 7.53042 41.5135 6.93121 40.3374C6.25 39.0005 6.25 37.2503 6.25 33.75V16.25Z" stroke="#C7C7C7" stroke-width="4" stroke-linecap="round" stroke-linejoin="round"/>
</svg>
