<svg width="50" height="50" viewBox="0 0 50 50" fill="none" xmlns="http://www.w3.org/2000/svg">
<path fill-rule="evenodd" clip-rule="evenodd" d="M6 0C2.68629 0 0 2.68629 0 6V44C0 47.3137 2.68629 50 6 50H44C47.3137 50 50 47.3137 50 44V6C50 2.68629 47.3137 0 44 0H6ZM9.18771 31.5415C9.39072 31.6805 9.72694 31.75 10.1964 31.75C10.6658 31.75 11.002 31.6805 11.205 31.5415C11.408 31.4025 11.5349 31.2256 11.5857 31.0108C11.6364 30.7834 11.6618 30.5496 11.6618 30.3095V27.8266H14.0978C14.6307 27.8266 15.1699 27.7319 15.7155 27.5423C16.261 27.3402 16.7622 27.0496 17.2189 26.6705C17.6884 26.2788 18.0627 25.7923 18.3418 25.2111C18.6336 24.6298 18.7795 23.9538 18.7795 23.1831C18.7795 22.3997 18.6336 21.7173 18.3418 21.1361C18.0627 20.5549 17.6884 20.0684 17.2189 19.6767C16.7622 19.2724 16.261 18.9754 15.7155 18.7859C15.1826 18.5963 14.6497 18.5016 14.1168 18.5016H10.2154C9.74597 18.5016 9.40974 18.5711 9.20676 18.7101C9.00375 18.8491 8.87688 19.0323 8.82613 19.2597C8.77538 19.4745 8.75 19.702 8.75 19.942V30.2906C8.75 30.5307 8.77538 30.7644 8.82613 30.9919C8.87688 31.2193 8.99741 31.4025 9.18771 31.5415ZM14.1168 24.9457H11.6618V21.3825H14.0978C14.453 21.3825 14.7639 21.4583 15.0303 21.6099C15.3094 21.7616 15.5251 21.97 15.6774 22.2354C15.8297 22.5007 15.9058 22.8103 15.9058 23.1641C15.9058 23.5811 15.8106 23.9223 15.6203 24.1876C15.4427 24.4529 15.2143 24.6488 14.9352 24.7751C14.6687 24.8889 14.396 24.9457 14.1168 24.9457ZM20.4672 31.5415C20.6702 31.6805 20.9937 31.75 21.4378 31.75H24.8254C25.7643 31.75 26.627 31.5794 27.4136 31.2383C28.2129 30.8971 28.9108 30.4296 29.5071 29.8357C30.1034 29.2292 30.5665 28.5216 30.8963 27.7129C31.2262 26.8916 31.3912 26.0071 31.3912 25.0594C31.3912 24.1244 31.2262 23.2589 30.8963 22.4628C30.5665 21.6668 30.1034 20.9718 29.5071 20.378C28.9108 19.7841 28.2193 19.3229 27.4326 18.9944C26.646 18.6658 25.796 18.5016 24.8825 18.5016H21.4568C20.9874 18.4889 20.6512 18.5521 20.4482 18.6911C20.2452 18.8301 20.1183 19.0133 20.0675 19.2408C20.0168 19.4556 19.9914 19.683 19.9914 19.9231V30.2906C19.9914 30.5433 20.0231 30.7834 20.0866 31.0108C20.15 31.2256 20.2769 31.4025 20.4672 31.5415ZM24.8825 28.8501H22.8842V21.3825H24.8634C25.5612 21.3825 26.1829 21.5468 26.7285 21.8753C27.2741 22.1912 27.7054 22.6334 28.0226 23.202C28.3398 23.7706 28.4984 24.415 28.4984 25.1353C28.4984 25.8555 28.3398 26.4936 28.0226 27.0496C27.7054 27.6055 27.2741 28.0478 26.7285 28.3763C26.1829 28.6922 25.5676 28.8501 24.8825 28.8501ZM33.3321 31.5605C33.5351 31.6868 33.865 31.75 34.3217 31.75C34.8038 31.75 35.1401 31.6868 35.3304 31.5605C35.5334 31.4215 35.6603 31.2446 35.711 31.0298C35.7618 30.8023 35.7871 30.5686 35.7871 30.3285V26.3293H39.6695C39.936 26.3293 40.1643 26.3104 40.3546 26.2725C40.5576 26.2346 40.7162 26.1335 40.8304 25.9692C40.9446 25.7923 41.0017 25.5017 41.0017 25.0974C41.0017 24.6804 40.9446 24.3835 40.8304 24.2065C40.7162 24.0296 40.5576 23.9223 40.3546 23.8843C40.1643 23.8464 39.9423 23.8275 39.6886 23.8275H35.7871V21.3825H39.5346C39.7883 21.3825 40.0231 21.3635 40.2388 21.3256C40.4671 21.2751 40.6511 21.1487 40.7906 20.9466C40.9302 20.7444 41 20.4159 41 19.961C41 19.4808 40.9302 19.1397 40.7906 18.9375C40.6638 18.7353 40.4925 18.6153 40.2768 18.5774C40.0611 18.5269 39.8264 18.5016 39.5727 18.5016H34.3788C33.8206 18.5016 33.4336 18.6027 33.2179 18.8048C33.0022 19.007 32.8944 19.3861 32.8944 19.942V30.3095C32.8944 30.5496 32.9134 30.7834 32.9515 31.0108C33.0022 31.2383 33.1291 31.4215 33.3321 31.5605Z" fill="#2C2F88"/>
</svg>
