<svg width="30" height="29" viewBox="0 0 30 29" fill="none" xmlns="http://www.w3.org/2000/svg">
<path d="M30 23.607V5.23915C30.0007 4.55096 29.8637 3.86939 29.597 3.23345C29.3302 2.59751 28.9389 2.0197 28.4455 1.53307C27.952 1.04644 27.3661 0.66055 26.7213 0.397488C26.0764 0.134426 25.3853 -0.000646306 24.6875 2.32504e-06L30 23.607ZM30 23.607C30.0007 24.2952 29.8637 24.9768 29.597 25.6127C29.3302 26.2486 28.9389 26.8265 28.4455 27.3131C27.952 27.7997 27.3661 28.1856 26.7213 28.4487C26.0764 28.7117 25.3853 28.8468 24.6875 28.8462H5.3125M30 23.607L5.3125 28.8462M5.3125 28.8462C4.61467 28.8468 3.92356 28.7117 3.27872 28.4487M5.3125 28.8462L3.27872 28.4487M3.27872 28.4487C2.63388 28.1856 2.04797 27.7997 1.55453 27.3131M3.27872 28.4487L1.55453 27.3131M1.55453 27.3131C1.06109 26.8265 0.669798 26.2486 0.403053 25.6127L1.55453 27.3131ZM5.31157 1H5.3125L24.6875 1L24.6884 1C25.2567 0.999474 25.8192 1.10948 26.3436 1.3234C26.8679 1.53731 27.3434 1.85074 27.7433 2.24507C28.1431 2.63938 28.4594 3.10681 28.6748 3.62025C28.8901 4.13367 29.0005 4.68343 29 5.2382V5.23915V23.607V23.608C29.0005 24.1627 28.8901 24.7125 28.6748 25.2259C28.4594 25.7393 28.1431 26.2068 27.7433 26.6011C27.3434 26.9954 26.8679 27.3088 26.3436 27.5228C25.8192 27.7367 25.2567 27.8467 24.6884 27.8462H24.6875H5.3125H5.31157C4.7433 27.8467 4.18082 27.7367 3.65645 27.5228C3.13209 27.3088 2.65656 26.9954 2.25671 26.6011C1.85688 26.2068 1.54058 25.7393 1.32521 25.2259C1.10986 24.7125 0.999472 24.1627 1 23.608V23.607L1 5.23915L1 5.2382C0.999472 4.68343 1.10986 4.13367 1.32521 3.62025C1.54058 3.10681 1.85688 2.63938 2.25671 2.24507C2.65656 1.85074 3.13209 1.53731 3.65645 1.3234C4.18082 1.10948 4.7433 0.999474 5.31157 1Z" stroke="#30A8FF" stroke-width="2"/>
<path d="M6.75 20.2285V7.54355C6.75 7.45726 6.7875 7.40795 6.875 7.40795C7.0875 7.40795 7.2875 7.40795 7.575 7.39562C7.8625 7.38329 8.1875 7.38329 8.525 7.37097C8.8625 7.35864 9.225 7.35864 9.6125 7.34631C10 7.33398 10.375 7.33398 10.75 7.33398C11.775 7.33398 12.625 7.45726 13.325 7.71613C13.9525 7.92629 14.5247 8.27159 15 8.72698C15.4028 9.12551 15.714 9.60478 15.9125 10.1323C16.1017 10.646 16.199 11.1883 16.2 11.7349C16.2 12.795 15.95 13.6703 15.45 14.3606C14.9477 15.05 14.2464 15.5741 13.4375 15.8646C12.5875 16.1727 11.65 16.2837 10.625 16.2837C10.325 16.2837 10.125 16.2837 10 16.2714C9.875 16.259 9.7 16.259 9.4625 16.259V20.2161C9.46529 20.2364 9.46392 20.257 9.45847 20.2768C9.45303 20.2966 9.44361 20.315 9.43079 20.3311C9.41796 20.3472 9.40199 20.3606 9.38382 20.3705C9.36565 20.3804 9.34564 20.3866 9.325 20.3887H6.9C6.8 20.3887 6.75 20.3394 6.75 20.2285ZM9.475 9.78714V13.9292C9.65 13.9415 9.8125 13.9538 9.9625 13.9538H10.625C11.113 13.9544 11.598 13.8795 12.0625 13.7319C12.461 13.6163 12.817 13.3894 13.0875 13.0786C13.35 12.7704 13.475 12.3512 13.475 11.8088C13.4868 11.4236 13.387 11.0431 13.1875 10.7117C12.9791 10.3916 12.6725 10.1455 12.3125 10.009C11.8432 9.82778 11.3411 9.74385 10.8375 9.76249C10.5125 9.76249 10.225 9.76249 9.9875 9.77481C9.81664 9.7638 9.64512 9.76792 9.475 9.78714Z" fill="#30A8FF"/>
<path d="M24 13.1766C23.6226 12.9806 23.2184 12.8394 22.8 12.7575C22.3405 12.6549 21.8711 12.6011 21.4 12.5972C21.147 12.5886 20.8942 12.6177 20.65 12.6835C20.4943 12.7155 20.3562 12.8033 20.2625 12.9301C20.1993 13.0301 20.1648 13.1451 20.1625 13.2629C20.1683 13.3802 20.2121 13.4925 20.2875 13.5834C20.406 13.7205 20.5503 13.8335 20.7125 13.9163C21 14.0642 21.3 14.1998 21.6 14.3231C22.2753 14.5473 22.9215 14.8493 23.525 15.223C23.9355 15.4775 24.275 15.8292 24.5125 16.2461C24.7134 16.6394 24.8122 17.0757 24.8 17.5159C24.8101 18.0985 24.6401 18.6704 24.3125 19.1554C23.9638 19.6475 23.4774 20.0288 22.9125 20.2526C22.3 20.5114 21.55 20.647 20.65 20.647C20.0794 20.6493 19.5099 20.5956 18.95 20.4868C18.5091 20.4116 18.0804 20.279 17.675 20.0923C17.6314 20.0707 17.5952 20.0371 17.5708 19.9955C17.5463 19.9538 17.5348 19.9061 17.5375 19.8581V17.7131C17.5364 17.692 17.5404 17.671 17.5491 17.6517C17.5578 17.6325 17.5709 17.6155 17.5875 17.6022C17.6051 17.592 17.6256 17.5878 17.6458 17.59C17.6661 17.5922 17.6851 17.6008 17.7 17.6145C18.1815 17.8944 18.7045 18.0983 19.25 18.2185C19.7316 18.3421 20.2273 18.4043 20.725 18.4034C21.2 18.4034 21.5375 18.3418 21.7625 18.2309C21.8629 18.1851 21.9479 18.1122 22.0077 18.0204C22.0675 17.9287 22.0995 17.8221 22.1 17.7131C22.1 17.5405 22 17.3803 21.8 17.22C21.6 17.0598 21.1875 16.8748 20.575 16.6406C19.9467 16.4223 19.3499 16.1239 18.8 15.7531C18.4083 15.4777 18.0838 15.1198 17.85 14.7052C17.6505 14.3159 17.5518 13.8839 17.5625 13.4478C17.5643 12.9218 17.7113 12.4062 17.9875 11.9562C18.305 11.4613 18.7608 11.0675 19.3 10.8221C19.8875 10.5262 20.625 10.3906 21.5125 10.3906C22.0312 10.3908 22.5492 10.4278 23.0625 10.5016C23.4316 10.5508 23.7928 10.6461 24.1375 10.7851C24.1924 10.8043 24.2374 10.8442 24.2625 10.896C24.2769 10.9442 24.2853 10.9938 24.2875 11.044V13.0533C24.2877 13.0773 24.2821 13.101 24.2713 13.1224C24.2604 13.1438 24.2446 13.1624 24.225 13.1766C24.1523 13.2024 24.0727 13.2024 24 13.1766Z" fill="#30A8FF"/>
</svg>
