<svg width="24" height="24" viewBox="0 0 24 24" fill="none" xmlns="http://www.w3.org/2000/svg">
<path fill-rule="evenodd" clip-rule="evenodd" d="M15 8C15 9.65685 13.6568 11 12 11C10.3431 11 8.99997 9.65685 8.99997 8C8.99997 6.34315 10.3431 5 12 5C13.6568 5 15 6.34315 15 8ZM14.4218 12.3754C15.9593 11.5225 17 9.88279 17 8C17 5.23858 14.7614 3 12 3C9.23855 3 6.99997 5.23858 6.99997 8C6.99997 9.8828 8.04064 11.5225 9.57816 12.3754C8.36896 12.7595 7.25691 13.4294 6.34315 14.3431C5.32406 15.3622 4.60831 16.6279 4.25401 18C4.08671 18.6479 4 19.3195 4 20L6 20H12H18H20C20 19.3195 19.9133 18.6479 19.746 18C19.3917 16.6279 18.6759 15.3622 17.6569 14.3431C16.7431 13.4294 15.631 12.7595 14.4218 12.3754ZM16.2426 15.7574C16.8815 16.3962 17.3613 17.1642 17.6569 18H12L6.34314 18C6.63866 17.1642 7.11855 16.3962 7.75736 15.7574C8.88258 14.6321 10.4087 14 12 14C13.5913 14 15.1174 14.6321 16.2426 15.7574Z" fill="#2C2F88"/>
</svg>
