<svg width="98" height="98" viewBox="0 0 98 98" fill="none" xmlns="http://www.w3.org/2000/svg">
<path d="M13.0469 79.1042C23.9761 72.9267 36.3207 69.6893 48.875 69.7083C61.8958 69.7083 74.1198 73.1198 84.7031 79.1042M64.5 38.4583C64.5 42.6023 62.8538 46.5766 59.9235 49.5069C56.9933 52.4371 53.019 54.0833 48.875 54.0833C44.731 54.0833 40.7567 52.4371 37.8265 49.5069C34.8962 46.5766 33.25 42.6023 33.25 38.4583C33.25 34.3143 34.8962 30.34 37.8265 27.4098C40.7567 24.4795 44.731 22.8333 48.875 22.8333C53.019 22.8333 56.9933 24.4795 59.9235 27.4098C62.8538 30.34 64.5 34.3143 64.5 38.4583ZM95.75 48.875C95.75 55.0307 94.5375 61.1262 92.1819 66.8133C89.8262 72.5004 86.3734 77.6679 82.0206 82.0206C77.6679 86.3734 72.5004 89.8262 66.8133 92.1819C61.1262 94.5375 55.0307 95.75 48.875 95.75C42.7193 95.75 36.6239 94.5375 30.9367 92.1819C25.2496 89.8262 20.0821 86.3734 15.7294 82.0206C11.3766 77.6679 7.92384 72.5004 5.56815 66.8133C3.21246 61.1262 2 55.0307 2 48.875C2 36.443 6.9386 24.5201 15.7294 15.7294C24.5201 6.9386 36.443 2 48.875 2C61.307 2 73.2299 6.9386 82.0206 15.7294C90.8114 24.5201 95.75 36.443 95.75 48.875Z" stroke="#2C2F88" stroke-width="4" stroke-linecap="round" stroke-linejoin="round"/>
</svg>
