<svg width="125" height="125" viewBox="0 0 125 125" fill="none" xmlns="http://www.w3.org/2000/svg">
<path d="M26.6719 92.7292C37.6011 86.5517 49.9457 83.3143 62.5 83.3333C75.5208 83.3333 87.7448 86.7448 98.3281 92.7292M78.125 52.0833C78.125 56.2273 76.4788 60.2016 73.5485 63.1319C70.6183 66.0621 66.644 67.7083 62.5 67.7083C58.356 67.7083 54.3817 66.0621 51.4515 63.1319C48.5212 60.2016 46.875 56.2273 46.875 52.0833C46.875 47.9393 48.5212 43.965 51.4515 41.0348C54.3817 38.1045 58.356 36.4583 62.5 36.4583C66.644 36.4583 70.6183 38.1045 73.5485 41.0348C76.4788 43.965 78.125 47.9393 78.125 52.0833ZM109.375 62.5C109.375 68.6557 108.163 74.7512 105.807 80.4383C103.451 86.1254 99.9984 91.2929 95.6456 95.6456C91.2929 99.9984 86.1254 103.451 80.4383 105.807C74.7512 108.163 68.6557 109.375 62.5 109.375C56.3443 109.375 50.2489 108.163 44.5617 105.807C38.8746 103.451 33.7071 99.9984 29.3544 95.6456C25.0016 91.2929 21.5488 86.1254 19.1931 80.4383C16.8375 74.7512 15.625 68.6557 15.625 62.5C15.625 50.068 20.5636 38.1451 29.3544 29.3544C38.1451 20.5636 50.068 15.625 62.5 15.625C74.932 15.625 86.8549 20.5636 95.6456 29.3544C104.436 38.1451 109.375 50.068 109.375 62.5Z" stroke="#2C2F88" stroke-width="4" stroke-linecap="round" stroke-linejoin="round"/>
</svg>
